HIERARCHY
ROOT Hips
{
	OFFSET 0.00000 0.00000 0.00000
	CHANNELS 6 Xposition Yposition Zposition Zrotation Yrotation Xrotation 
	JOINT LHipJoint
	{
		OFFSET 0 0 0
		CHANNELS 3 Zrotation Yrotation Xrotation
		JOINT LeftUpLeg
		{
			OFFSET 1.55766 -1.60504 1.11378
			CHANNELS 3 Zrotation Yrotation Xrotation
			JOINT LeftLeg
			{
				OFFSET 2.29047 -6.29302 0.00000
				CHANNELS 3 Zrotation Yrotation Xrotation
				JOINT LeftFoot
				{
					OFFSET 2.52265 -6.93093 0.00000
					CHANNELS 3 Zrotation Yrotation Xrotation
					JOINT LeftToeBase
					{
						OFFSET 0.17633 -0.48446 2.02656
						CHANNELS 3 Zrotation Yrotation Xrotation
						End Site
						{
							OFFSET 0.00000 -0.00000 1.04989
						}
					}
				}
			}
		}
	}
	JOINT RHipJoint
	{
		OFFSET 0 0 0
		CHANNELS 3 Zrotation Yrotation Xrotation
		JOINT RightUpLeg
		{
			OFFSET -1.48599 -1.60504 1.11378
			CHANNELS 3 Zrotation Yrotation Xrotation
			JOINT RightLeg
			{
				OFFSET -2.27280 -6.24448 0.00000
				CHANNELS 3 Zrotation Yrotation Xrotation
				JOINT RightFoot
				{
					OFFSET -2.50834 -6.89161 0.00000
					CHANNELS 3 Zrotation Yrotation Xrotation
					JOINT RightToeBase
					{
						OFFSET -0.26967 -0.74090 2.08741
						CHANNELS 3 Zrotation Yrotation Xrotation
						End Site
						{
							OFFSET -0.00000 -0.00000 1.10614
						}
					}
				}
			}
		}
	}
	JOINT LowerBack
	{
		OFFSET 0 0 0
		CHANNELS 3 Zrotation Yrotation Xrotation
		JOINT Spine
		{
			OFFSET 0.06481 2.02437 -0.08472
			CHANNELS 3 Zrotation Yrotation Xrotation
			JOINT Spine1
			{
				OFFSET 0.00015 1.96711 0.18069
				CHANNELS 3 Zrotation Yrotation Xrotation
				JOINT Neck
				{
					OFFSET 0 0 0
					CHANNELS 3 Zrotation Yrotation Xrotation
					JOINT Neck1
					{
						OFFSET -0.29961 1.68293 -0.13041
						CHANNELS 3 Zrotation Yrotation Xrotation
						JOINT Head
						{
							OFFSET 0.59697 1.61501 -0.14669
							CHANNELS 3 Zrotation Yrotation Xrotation
							End Site
							{
								OFFSET 0.22973 1.74906 -0.10148
							}
						}
					}
				}
				JOINT LeftShoulder
				{
					OFFSET 0 0 0
					CHANNELS 3 Zrotation Yrotation Xrotation
					JOINT LeftArm
					{
						OFFSET 3.37968 1.02893 0.31147
						CHANNELS 3 Zrotation Yrotation Xrotation
						JOINT LeftForeArm
						{
							OFFSET 5.19807 -0.00000 -0.00000
							CHANNELS 3 Zrotation Yrotation Xrotation
							JOINT LeftHand
							{
								OFFSET 3.09370 -0.00000 -0.00000
								CHANNELS 3 Zrotation Yrotation Xrotation
								JOINT LeftFingerBase
								{
									OFFSET 0 0 0
									CHANNELS 3 Zrotation Yrotation Xrotation
									JOINT LeftHandIndex1
									{
										OFFSET 0.67263 -0.00000 -0.00000
										CHANNELS 3 Zrotation Yrotation Xrotation
										End Site
										{
											OFFSET 0.54229 -0.00000 -0.00000
										}
									}
								}
								JOINT LThumb
								{
									OFFSET 0 0 0
									CHANNELS 3 Zrotation Yrotation Xrotation
									End Site
									{
										OFFSET 0.55057 -0.00000 0.55057
									}
								}
							}
						}
					}
				}
				JOINT RightShoulder
				{
					OFFSET 0 0 0
					CHANNELS 3 Zrotation Yrotation Xrotation
					JOINT RightArm
					{
						OFFSET -3.38254 0.96355 -0.16120
						CHANNELS 3 Zrotation Yrotation Xrotation
						JOINT RightForeArm
						{
							OFFSET -5.45222 -0.00000 -0.00000
							CHANNELS 3 Zrotation Yrotation Xrotation
							JOINT RightHand
							{
								OFFSET -3.01284 -0.00000 -0.00000
								CHANNELS 3 Zrotation Yrotation Xrotation
								JOINT RightFingerBase
								{
									OFFSET 0 0 0
									CHANNELS 3 Zrotation Yrotation Xrotation
									JOINT RightHandIndex1
									{
										OFFSET -0.62230 -0.00000 -0.00000
										CHANNELS 3 Zrotation Yrotation Xrotation
										End Site
										{
											OFFSET -0.50171 -0.00000 -0.00000
										}
									}
								}
								JOINT RThumb
								{
									OFFSET 0 0 0
									CHANNELS 3 Zrotation Yrotation Xrotation
									End Site
									{
										OFFSET -0.50937 -0.00000 0.50937
									}
								}
							}
						}
					}
				}
			}
		}
	}
}
MOTION
Frames: 10
Frame Time: .0083333
-5.5669 16.3610 12.4878 -184.8540 0.5561 -171.3530 0.0000 0.0000 0.0000 -28.2823 -2.9499 -6.5751 1.0885 6.6306 18.6256 -1.7109 -25.9460 -4.3977 0.0036 -0.3867 -1.0626 0.0000 0.0000 0.0000 9.2767 14.7295 -42.3316 -4.8810 -13.2485 40.3059 0.1497 7.2734 0.0311 -1.3112 7.2533 -20.4681 -3.4858 0.1054 4.7199 -2.1264 -0.0404 -5.4835 -0.3029 0.2382 -8.4219 -32.5195 -6.5559 21.1697 42.1874 -18.8294 -10.3010 23.0920 -12.9461 1.5959 -0.0000 0.0000 0.0000 -83.5622 9.3023 34.9503 24.0360 -35.2023 -7.7273 -0.0000 0.0000 -39.5549 15.6790 -13.1690 -3.6590 -7.1250 0.0000 -0.0000 -8.0250 16.4068 5.4861 -0.0000 0.0000 0.0000 88.4263 -6.8176 16.0365 -15.4184 24.7257 -3.3990 0.0000 0.0000 19.9768 -8.6379 -1.1954 0.1816 7.1250 -0.0000 -0.0000 14.1970 -30.9945 4.9957
-5.5716 16.3531 12.5940 -184.9230 0.5663 -171.4550 0.0000 0.0000 0.0000 -28.4229 -3.1097 -7.0081 1.1307 6.7538 18.9880 -1.6205 -25.7056 -5.0087 0.0042 -0.4177 -1.1477 0.0000 0.0000 0.0000 9.3091 14.4267 -42.3406 -5.4470 -13.8701 42.7196 0.0981 6.6383 -1.4642 -1.3686 7.4040 -20.9178 -3.4904 0.0932 4.7172 -2.1608 -0.0596 -5.4444 -0.3336 0.2266 -8.3775 -32.4992 -6.5568 21.1813 42.1813 -18.8353 -10.2945 23.0821 -12.9509 1.5938 -0.0000 0.0000 0.0000 -83.5063 9.6132 34.7294 23.8510 -35.0062 -7.6209 -0.0000 0.0000 -39.5371 15.6351 -13.2250 -3.6634 -7.1250 0.0000 -0.0000 -8.0553 16.3529 5.5168 -0.0000 0.0000 0.0000 88.5216 -6.9695 15.6358 -15.1727 24.3862 -3.2969 0.0000 0.0000 20.3560 -8.5480 -1.2023 0.1807 7.1250 -0.0000 -0.0000 14.2680 -30.9990 5.0205
-5.5757 16.3455 12.6989 -184.9370 0.5336 -171.5210 0.0000 0.0000 0.0000 -28.4910 -3.3106 -7.4884 1.1792 6.8920 19.3959 -1.5328 -25.4785 -5.6039 0.0042 -0.4185 -1.1498 0.0000 0.0000 0.0000 9.4085 14.0865 -42.3490 -6.0444 -14.4712 45.1597 0.0475 6.0660 -2.7703 -1.4064 7.5014 -21.2095 -3.4435 0.0604 4.6751 -2.1679 -0.0977 -5.4329 -0.3622 0.2042 -8.3393 -32.5061 -6.5393 21.2274 42.1675 -18.8348 -10.2752 23.0829 -12.9532 1.5872 0.0000 -0.0000 0.0000 -83.4767 9.9621 34.4683 23.6389 -34.7801 -7.4996 -0.0000 0.0000 -39.4692 15.6281 -13.1570 -3.6433 -7.1250 0.0000 -0.0000 -8.0600 16.4230 5.5077 0.0000 -0.0000 0.0000 88.5971 -7.1522 15.2175 -14.9158 24.0287 -3.1916 0.0000 0.0000 20.7711 -8.4260 -1.2100 0.1792 7.1250 -0.0000 -0.0000 14.3640 -31.0033 5.0547
-5.5797 16.3385 12.8025 -184.9070 0.4583 -171.5570 0.0000 0.0000 0.0000 -28.5004 -3.5411 -8.0097 1.2326 7.0408 19.8363 -1.4532 -25.2776 -6.1456 0.0033 -0.3731 -1.0252 0.0000 0.0000 0.0000 9.5580 13.7085 -42.3431 -6.6669 -15.0448 47.6029 -0.0004 5.5625 -3.9086 -1.4335 7.5701 -21.4158 -3.3523 0.0060 4.5901 -2.1512 -0.1570 -5.4447 -0.3880 0.1703 -8.3004 -32.5432 -6.5005 21.3103 42.1486 -18.8241 -10.2478 23.0990 -12.9516 1.5737 -0.0000 0.0000 0.0000 -83.4786 10.3439 34.1538 23.3939 -34.5168 -7.3603 -0.0000 0.0000 -39.3716 15.6189 -13.0538 -3.6130 -7.1250 0.0000 -0.0000 -8.0662 16.5293 5.4932 -0.0000 0.0000 0.0000 88.6493 -7.3625 14.7951 -14.6505 23.6570 -3.0843 0.0000 0.0000 21.2058 -8.2847 -1.2104 0.1762 7.1250 -0.0000 -0.0000 14.4739 -31.0000 5.0969
-5.5841 16.3316 12.9038 -184.8310 0.3690 -171.5780 0.0000 0.0000 0.0000 -28.4513 -3.7712 -8.5585 1.2905 7.1979 20.3031 -1.3810 -25.1145 -6.6594 0.0022 -0.2998 -0.8238 0.0000 0.0000 0.0000 9.7606 13.3269 -42.2920 -7.3087 -15.5864 50.0322 -0.0451 5.1316 -4.9079 -1.4570 7.6292 -21.5935 -3.1986 -0.0414 4.4872 -2.1319 -0.2013 -5.4548 -0.4479 0.1396 -8.2496 -32.5599 -6.4826 21.3644 42.1301 -18.8308 -10.2180 23.0978 -12.9572 1.5720 0.0000 -0.0000 0.0000 -83.4748 10.7078 33.8405 23.1236 -34.2236 -7.2077 -0.0000 0.0000 -39.2575 15.5990 -12.8877 -3.5632 -7.1250 0.0000 -0.0000 -8.0798 16.7008 5.4722 0.0000 -0.0000 0.0000 88.7122 -7.5591 14.3153 -14.3786 23.2734 -2.9761 0.0000 0.0000 21.6447 -8.1223 -1.2029 0.1717 7.1250 -0.0000 -0.0000 14.5989 -30.9884 5.1477
-5.5887 16.3248 13.0040 -184.7330 0.2629 -171.5810 0.0000 0.0000 0.0000 -28.3683 -4.0028 -9.1387 1.3524 7.3617 20.7916 -1.3201 -24.9982 -7.1184 0.0011 -0.2113 -0.5804 0.0000 0.0000 0.0000 9.9873 12.9302 -42.2010 -7.9644 -16.0930 52.4344 -0.0859 4.7883 -5.7821 -1.4741 7.6719 -21.7218 -2.9926 0.2632 4.3575 -2.1282 -0.3309 -5.4646 -0.5094 -0.1750 -8.1948 -32.5904 -6.4618 21.4292 42.1039 -18.8408 -10.1784 23.0954 -12.9634 1.5727 -0.0000 0.0000 0.0000 -83.4925 11.0829 33.5068 22.8327 -33.9054 -7.0448 -0.0000 0.0000 -39.1139 15.6123 -12.6353 -3.4978 -7.1250 0.0000 -0.0000 -8.0707 16.9581 5.4202 -0.0000 0.0000 0.0000 88.7575 -7.7677 13.8230 -14.0992 22.8763 -2.8666 0.0000 0.0000 22.0958 -7.9482 -1.1972 0.1671 7.1250 -0.0000 -0.0000 14.7331 -30.9782 5.2017
-5.5938 16.3177 13.1027 -184.6190 0.1636 -171.5760 0.0000 0.0000 0.0000 -28.2593 -4.2200 -9.7437 1.4187 7.5326 21.3033 -1.2693 -24.9282 -7.5322 0.0003 -0.1176 -0.3231 0.0000 0.0000 0.0000 10.2336 12.5387 -42.0498 -8.6283 -16.5625 54.7955 -0.1224 4.5469 -6.5389 -1.4866 7.7030 -21.8157 -2.7950 0.2195 4.2221 -2.0963 -0.3669 -5.4932 -0.5822 -0.2043 -8.1451 -32.6112 -6.4590 21.4746 42.0689 -18.8690 -10.1288 23.0732 -12.9758 1.5854 -0.0000 0.0000 0.0000 -83.5149 11.4560 33.1926 22.5337 -33.5750 -6.8787 -0.0000 0.0000 -38.9311 15.6988 -12.2660 -3.4172 -7.1250 0.0000 -0.0000 -8.0114 17.3297 5.3139 -0.0000 0.0000 0.0000 88.7987 -7.9698 13.2827 -13.8012 22.4498 -2.7517 0.0000 0.0000 22.5914 -7.8003 -1.1207 0.1535 7.1250 -0.0000 -0.0000 14.8360 -30.8997 5.2692
-5.5989 16.3100 13.2003 -184.4950 0.0742 -171.5680 0.0000 0.0000 0.0000 -28.1281 -4.4285 -10.3691 1.4895 7.7102 21.8373 -1.2287 -24.8980 -7.8934 0.0000 -0.0122 -0.0335 0.0000 0.0000 0.0000 10.4941 12.1619 -41.8276 -9.2925 -16.9923 57.0964 -0.1551 4.3999 -7.1930 -1.4943 7.7220 -21.8728 -2.5874 0.1851 4.0817 -2.0637 -0.3903 -5.5236 -0.6613 -0.2280 -8.0947 -32.6205 -6.4698 21.5071 42.0255 -18.9095 -10.0716 23.0344 -12.9920 1.6054 -0.0000 0.0000 0.0000 -83.5425 11.8191 32.8909 22.2197 -33.2244 -6.7058 -0.0000 0.0000 -38.7238 15.8433 -11.8043 -3.3225 -7.1250 0.0000 -0.0000 -7.9126 17.7925 5.1659 -0.0000 0.0000 0.0000 88.8361 -8.1689 12.7163 -13.5017 22.0179 -2.6384 0.0000 0.0000 23.1035 -7.6406 -1.0550 0.1415 7.1250 -0.0000 -0.0000 14.9494 -30.8314 5.3374
-5.6034 16.3019 13.2978 -184.3750 -0.0022 -171.5550 0.0000 0.0000 0.0000 -27.9886 -4.6305 -11.0193 1.5648 7.8938 22.3919 -1.1982 -24.9040 -8.1979 0.0002 0.0980 0.2693 0.0000 0.0000 0.0000 10.7529 11.8031 -41.5352 -9.9486 -17.3808 59.3164 -0.1829 4.3504 -7.7337 -1.4965 7.7275 -21.8895 -2.4007 0.1564 3.9415 -2.0251 -0.4096 -5.5662 -0.7231 -0.2486 -8.0580 -32.6345 -6.4823 21.5493 41.9663 -18.9540 -10.0039 22.9850 -13.0078 1.6259 0.0000 -0.0000 0.0000 -83.5869 12.1828 32.5613 21.8638 -32.8228 -6.5119 -0.0000 0.0000 -38.5381 15.9480 -11.4263 -3.2402 -7.1250 0.0000 -0.0000 -7.8413 18.1732 5.0521 0.0000 -0.0000 0.0000 88.8573 -8.3761 12.1346 -13.1981 21.5768 -2.5257 0.0000 0.0000 23.6566 -7.4675 -0.9937 0.1302 7.1250 -0.0000 -0.0000 15.0736 -30.7671 5.4087
-5.6072 16.2937 13.3956 -184.2570 -0.0644 -171.5420 0.0000 0.0000 0.0000 -27.8405 -4.8305 -11.6823 1.6433 8.0798 22.9566 -1.1756 -24.9280 -8.4451 0.0009 0.1942 0.5334 0.0000 0.0000 0.0000 11.0123 11.4638 -41.1622 -10.5860 -17.7265 61.4296 -0.2050 4.4057 -8.1566 -1.4944 7.7224 -21.8740 -2.2336 0.1327 3.8045 -1.9808 -0.4248 -5.6155 -0.7685 -0.2661 -8.0306 -32.6540 -6.4912 21.6015 41.8984 -18.9952 -9.9326 22.9335 -13.0205 1.6431 0.0000 0.0000 0.0000 -83.6483 12.5357 32.1941 21.4570 -32.3579 -6.2928 -0.0000 0.0000 -38.3536 15.9989 -11.1830 -3.1828 -7.1250 0.0000 -0.0000 -7.8073 18.4195 4.9870 0.0000 0.0000 0.0000 88.8642 -8.5852 11.5527 -12.8996 21.1399 -2.4170 0.0000 0.0000 24.2334 -7.2802 -0.9230 0.1179 7.1250 -0.0000 -0.0000 15.2073 -30.6936 5.4876
